# xmcd
#
# Track frame offsets: 
#        182
#        12900
#        34925
#        51947
#        64345
#        80127
#        100157
#        121812
#        134835
#        147472
#
# Disc length: 2124 seconds
#
# Revision: 1
# Processed by: cddbd v1.5.2PL0 Copyright (c) Steve Scherf et al.
# Submitted via: ExactAudioCopyFreeDBPlugin 1.0
#
DISCID=96084a0a
DTITLE=Os Serranos - Marca de Talento
DYEAR=1993
DGENRE=Gaúcha
TTITLE0=Bagual de Corredor
TTITLE1=Costumes do Meu Pago
TTITLE2=Santa Catarina
TTITLE3=Exaltação ao Bugio
TTITLE4=Marca de Talento
TTITLE5=Roda Que Roda
TTITLE6=Canção do Araguaia
TTITLE7=Bugio Dançador
TTITLE8=Cantiga de Amor e Paz
TTITLE9=Contrabando
EXTD=
EXTT0=
EXTT1=
EXTT2=
EXTT3=
EXTT4=
EXTT5=
EXTT6=
EXTT7=
EXTT8=
EXTT9=
PLAYORDER=
